# xmcd CD database file
#
# Track frame offsets:
#	150
#	11875
#	26988
#	35529
#	47458
#	54840
#	64769
#	75841
#	87297
#	100655
#	113564
#	124840
#	138377
#	150143
#	162693
#	173634
#
# Disc length: 2486 seconds
#
# Revision: 0
# Processed by: cddbd v1.5.2PL0 Copyright (c) Steve Scherf et al.
# Submitted via: cdripper 1,0,39,0213
#
DISCID=bc09b410
DTITLE=Varouis - Country Legends - For The Good Times
DYEAR=1900
DGENRE=Country
TTITLE0=16 Lynn Anderson - Rodeo Cowboy
TTITLE1=01 Kenny Rogers and The First Edition - For The Good Times
TTITLE2=02 Johnny Cash - Country Boy
TTITLE3=03 Barbara Fairchild - You Can't Put The City In A Country Girl
TTITLE4=04 Buck Owens - That Ain't Right Baby
TTITLE5=05 Willie Nelson - Healing Hands Of Time
TTITLE6=06 Donna Fargo - Wishful Thinking
TTITLE7=07 Hank Locklin - Send Me The Pillow That You Dream On
TTITLE8=08 Jerry Lee Lewis - You Win Again
TTITLE9=09 Dolly Parton - Little Blossom
TTITLE10=10 Waylon Jennings - Big Mamou
TTITLE11=11 Freddy Fender - Just Because
TTITLE12=12 Patsy Cline - I've Loved And Lost Again
TTITLE13=13 Harold Jenkins (Conway Twitty) - Crazy Dreams
TTITLE14=14 Loretta Lynn - Spring Fever
TTITLE15=15 Hank Williams - I Can't Get You Off My Mind
EXTD=
EXTT0=
EXTT1=
EXTT2=
EXTT3=
EXTT4=
EXTT5=
EXTT6=
EXTT7=
EXTT8=
EXTT9=
EXTT10=
EXTT11=
EXTT12=
EXTT13=
EXTT14=
EXTT15=
PLAYORDER=
